<svg width="920" height="220" viewBox="0 0 920 220" fill="none" xmlns="http://www.w3.org/2000/svg" role="img" aria-labelledby="title desc">
  <title id="title">AnwaltSoft futuristic wordmark</title>
  <desc id="desc">A modern two color AnwaltSoft wordmark with a geometric legaltech feather mark.</desc>
  <rect width="920" height="220" rx="34" fill="#F8FAFC"/>
  <defs>
    <linearGradient id="wordmark-accent" x1="4" y1="119" x2="426" y2="119" gradientUnits="userSpaceOnUse">
      <stop offset="0" stop-color="#0EA5E9"/>
      <stop offset="0.62" stop-color="#0EA5E9"/>
      <stop offset="1" stop-color="#991B1B"/>
    </linearGradient>
  </defs>
  <g transform="translate(54 36)">
    <path d="M118.4 12.5C88.2 17.6 63.7 34.9 48.2 59.9C33.1 84.2 30.1 111.5 39.6 139.6C51.9 115.1 70.8 89.3 96.2 62.2C76.3 88.7 62.2 119.2 55.1 153.7C76.8 145.4 94 128.2 104.2 104.4C116.6 75.6 121.4 45 118.4 12.5Z" fill="#0F172A"/>
    <path d="M114.2 19.5C84.2 43.7 60 79.8 41.6 127.7" stroke="#0EA5E9" stroke-width="4.2" stroke-linecap="round"/>
    <path d="M84.6 47.1L108.4 41.9M72.3 62.8L101.9 58.7M60.9 81.1L91.6 80.8M50.7 101.4L78.9 107.4M43.4 121.8L63.2 132.4" stroke="#0EA5E9" stroke-width="3.8" stroke-linecap="round"/>
    <path d="M42.6 151.1C55.8 129.3 73.6 110.6 96 95.1" stroke="#991B1B" stroke-width="4.8" stroke-linecap="round"/>
    <path d="M18.2 166.4C48.6 160.7 82.9 160.8 113.7 166.4" stroke="#0F172A" stroke-width="6.4" stroke-linecap="round"/>
    <path d="M105.8 164.7C119 171.7 131.4 178.6 143.1 185.5" stroke="#991B1B" stroke-width="6.4" stroke-linecap="round"/>
  </g>
  <g transform="translate(214 58)">
    <text x="0" y="86" fill="#0F172A" font-family="Inter, Avenir Next, Segoe UI, Arial, sans-serif" font-size="82" font-weight="760" letter-spacing="-1.5">Anwalt</text>
    <text x="278" y="86" fill="#991B1B" font-family="Inter, Avenir Next, Segoe UI, Arial, sans-serif" font-size="82" font-weight="760" letter-spacing="-1.5">Soft</text>
    <path d="M4 119C83 127 176 127 254 119C315 110.8 379.4 114.2 426 125.8" stroke="url(#wordmark-accent)" stroke-width="4.6" stroke-linecap="round"/>
    <text x="3" y="150" fill="#475569" font-family="Inter, Avenir Next, Segoe UI, Arial, sans-serif" font-size="22" font-weight="560" letter-spacing="4.8">LEGALTECH PLATFORM</text>
  </g>
</svg>
