<svg width="920" height="220" viewBox="0 0 920 220" fill="none" xmlns="http://www.w3.org/2000/svg" role="img" aria-labelledby="title desc">
  <title id="title">AnwaltSoft futuristic wordmark</title>
  <desc id="desc">A modern two color AnwaltSoft wordmark with a geometric legaltech feather mark.</desc>
  <rect width="920" height="220" rx="34" fill="#F8FAFC"/>
  <g transform="translate(54 36)">
    <path d="M125.6 13.8C84.2 18.9 49.5 43.4 31.7 77.8C20.9 98.7 17.7 121.9 22.4 142.5C41 118 65.7 95.9 95.7 76.2C69.6 99.7 49.9 125.8 38 154.2C61.8 153.6 84.7 143.9 102.7 126.2C128.8 100.5 137.7 62.7 125.6 13.8Z" fill="#0F172A"/>
    <path d="M124.2 16.1C88.5 33.5 58.6 58.1 34.4 89.9" stroke="#0EA5E9" stroke-width="5.2" stroke-linecap="round"/>
    <path d="M83.4 46.6L104.7 44.1M65.2 65.2L91.5 63.7M49.8 85.1L76.4 85.8M38.7 107.7L61.1 111.8" stroke="#0EA5E9" stroke-width="4.5" stroke-linecap="round"/>
    <path d="M28.3 157.4C44.5 137.5 64.1 119.6 87 103.8" stroke="#991B1B" stroke-width="5.2" stroke-linecap="round"/>
    <path d="M18.2 165.9H118.4" stroke="#0F172A" stroke-width="8" stroke-linecap="round"/>
    <path d="M113.5 162.4L142.7 181.8" stroke="#991B1B" stroke-width="8" stroke-linecap="round"/>
  </g>
  <g transform="translate(214 58)">
    <text x="0" y="86" fill="#0F172A" font-family="Inter, Avenir Next, Segoe UI, Arial, sans-serif" font-size="82" font-weight="760" letter-spacing="-1.5">Anwalt</text>
    <text x="278" y="86" fill="#991B1B" font-family="Inter, Avenir Next, Segoe UI, Arial, sans-serif" font-size="82" font-weight="760" letter-spacing="-1.5">Soft</text>
    <path d="M4 119H226" stroke="#0EA5E9" stroke-width="5" stroke-linecap="round"/>
    <path d="M239 119H405" stroke="#991B1B" stroke-width="5" stroke-linecap="round"/>
    <text x="3" y="150" fill="#475569" font-family="Inter, Avenir Next, Segoe UI, Arial, sans-serif" font-size="22" font-weight="560" letter-spacing="4.8">LEGALTECH PLATFORM</text>
  </g>
</svg>
