<svg width="900" height="900" viewBox="0 0 900 900" fill="none" xmlns="http://www.w3.org/2000/svg" role="img" aria-labelledby="title desc">
  <title id="title">AI Radar Visual</title>
  <desc id="desc">Abstract premium AI radar visual with local model nodes and automation paths.</desc>
  <defs>
    <radialGradient id="bg" cx="50%" cy="45%" r="65%">
      <stop offset="0" stop-color="#0E7490"/>
      <stop offset=".45" stop-color="#0F172A"/>
      <stop offset="1" stop-color="#020617"/>
    </radialGradient>
    <linearGradient id="line" x1="150" y1="150" x2="760" y2="760" gradientUnits="userSpaceOnUse">
      <stop stop-color="#67E8F9"/>
      <stop offset=".52" stop-color="#E2E8F0"/>
      <stop offset="1" stop-color="#991B1B"/>
    </linearGradient>
  </defs>
  <rect width="900" height="900" fill="url(#bg)"/>
  <circle cx="450" cy="450" r="318" stroke="#E2E8F0" stroke-opacity=".12" stroke-width="2"/>
  <circle cx="450" cy="450" r="218" stroke="#67E8F9" stroke-opacity=".2" stroke-width="2"/>
  <circle cx="450" cy="450" r="118" stroke="#E2E8F0" stroke-opacity=".18" stroke-width="2"/>
  <path d="M198 616C296 502 379 454 450 450C546 444 646 365 731 217" stroke="url(#line)" stroke-width="5" stroke-linecap="round"/>
  <path d="M215 288C305 354 391 395 450 450C520 515 585 553 690 592" stroke="#67E8F9" stroke-opacity=".55" stroke-width="3" stroke-linecap="round"/>
  <g fill="#E2E8F0">
    <circle cx="450" cy="450" r="18"/>
    <circle cx="198" cy="616" r="13"/>
    <circle cx="731" cy="217" r="13"/>
    <circle cx="215" cy="288" r="11"/>
    <circle cx="690" cy="592" r="11"/>
  </g>
  <g font-family="Arial, sans-serif" fill="#F8FAFC">
    <text x="72" y="112" font-size="42" font-weight="700">AI Radar</text>
    <text x="74" y="156" font-size="22" fill="#BAE6FD">Lokale Modelle · Workflows · Automation</text>
    <text x="74" y="784" font-size="24" fill="#CBD5E1">Tests, Erkenntnisse und sichere Experimente</text>
  </g>
</svg>
